<svg enable-background="new 0 0 48 48" height="240" viewBox="0 0 48 48" width="240" xmlns="http://www.w3.org/2000/svg"><path d="m22.5 39c-.5 0-.9-.4-1-.9l-1-7.9c-.1-.5.3-1 .9-1.1.5-.1 1 .3 1.1.9l1 7.9c.1.5-.3 1-.9 1.1 0 0 0 0-.1 0z" fill="#5d4037"/><path d="m27.5 40c-.2 0-.3 0-.4-.1-1.8-.9-4.6-.9-4.6-.9h-2c-.6 0-1-.4-1-1s.4-1 1-1h2c.1 0 3.3 0 5.4 1.1.5.2.7.8.4 1.3-.1.4-.5.6-.8.6z" fill="#5d4037"/><path d="m20.5 39.9c-.5 0-.9-.4-1-.9l-1-7.9c-.1-.5.3-1 .9-1.1.5-.1 1 .3 1.1.9l1 7.9c.1.5-.3 1-.9 1.1 0 0 0 0-.1 0z" fill="#795548"/><path d="m25.5 41c-.2 0-.3 0-.4-.1-1.8-.9-4.6-.9-4.6-.9h-2c-.6 0-1-.4-1-1s.4-1 1-1h2c.1 0 3.3 0 5.4 1.1.5.2.7.8.4 1.3-.1.4-.5.6-.8.6z" fill="#795548"/><path d="m16.5 22s7 0 10-3c1.9-1.9 2-5.1 0-7.1s-5.1-2-7.1 0c-3.4 3.6-2.9 10.1-2.9 10.1z" fill="#ffc107"/><path d="m29.3 31c-3.9 3.9-16.9 5-16.9 5s1.1-11.9 5.5-16.4c3.1-3.1 8.3-3.1 11.4 0 3.2 3.2 3.2 8.3 0 11.4z" fill="#ffc107"/><path d="m27.8 14 3.2-3.5-4.3 1.6-1.4 2.8 2.7 1.3 4.1-1.7z" fill="#455a64"/><path d="m22.1 12.7c.1.2.1.4.1.6 0 .8-.7 1.5-1.5 1.5-.2 0-.4 0-.6-.1.2.5.7.9 1.3.9.8 0 1.5-.7 1.5-1.5.1-.7-.3-1.2-.8-1.4z" fill="#795548"/><path d="m39.6 5c-.6 0-1.7 0-1.7.6v5.7s-.2-.1-.8-.1c-1.2.1-2.1 1-2.1 2 0 .9.9 1.5 2.1 1.3 1.1-.2 2-1 2-1.9 0 0 0-4.3 0-4.7s.3-.6.5-.6c3.7 0 3.4 2.1 3.4 2.1s.7-4.4-3.4-4.4z" fill="#ff1744"/><path d="m23.3 28.3c-2 2-6.2 4.1-11.8 5.2 1.6-6.4 3.1-9.9 5.1-11.9s5.1-2.1 6.9-.3c1.9 1.9 1.7 5-.2 7z" fill="#90a4ae"/><path d="m12.5 36s0-.5.1-1.3l-7.6 2.3c0 5 6 4 6 4l3-5 .1-.2c-1 .1-1.6.2-1.6.2z" fill="#607d8b"/><path d="m14.1 25.6c-.9 2-1.7 4.6-2.6 7.9 5.5-1.2 9.8-3.3 11.8-5.2 1-1 1.5-2.2 1.6-3.5-4.7-.8-8.4-.1-10.8.8z" fill="#607d8b"/><g fill="#37474f"><path d="m22 24.5c-.2.2-.3.4-.5.6-1.6 1.6-4.8 3.3-8.8 4.5-.2.7-.4 1.3-.6 2.1 4.9-1.2 8.6-3.1 10.4-4.9.6-.6 1-1.4 1.3-2.1-.7-.1-1.3-.2-1.8-.2z"/><path d="m13.3 27.7c2.7-.9 4.9-2 6.4-3.2-2.3.1-4.2.6-5.6 1.1-.3.6-.6 1.3-.8 2.1z"/></g></svg>